<?xml version="1.0" encoding="utf-8"?>
<!-- Generator: Adobe Illustrator 16.0.0, SVG Export Plug-In . SVG Version: 6.00 Build 0)  -->
<!DOCTYPE svg PUBLIC "-//W3C//DTD SVG 1.1//EN" "http://www.w3.org/Graphics/SVG/1.1/DTD/svg11.dtd">
<svg version="1.1" id="Layer_1" xmlns="http://www.w3.org/2000/svg" xmlns:xlink="http://www.w3.org/1999/xlink" x="0px" y="0px"
	 width="320px" height="209.882px" viewBox="0 0 320 209.882" enable-background="new 0 0 320 209.882" xml:space="preserve">
<g>
	<g>
		<polygon fill="#FFEFA6" points="154.452,101.943 155.345,106.436 159.551,108.249 155.554,110.486 155.129,115.048 
			151.767,111.938 147.298,112.942 149.217,108.784 146.88,104.843 151.428,105.385 		"/>
		<polygon fill="#FFEFA6" points="178.816,110.505 179.71,114.998 183.915,116.811 179.919,119.048 179.495,123.612 176.135,120.5 
			171.662,121.507 173.581,117.346 171.244,113.406 175.794,113.947 		"/>
		<polygon fill="#FFEFA6" points="125.368,111.336 126.261,115.833 130.468,117.645 126.469,119.882 126.046,124.441 
			122.682,121.331 118.212,122.338 120.133,118.179 117.795,114.237 122.343,114.779 		"/>
		<polygon fill="#FFEFA6" points="156.24,126.058 157.132,130.554 161.339,132.364 157.343,134.602 156.917,139.166 
			153.555,136.053 149.085,137.06 151.005,132.899 148.666,128.959 153.214,129.499 		"/>
		<polygon fill="#FFEFA6" points="186.274,134.307 187.167,138.8 191.376,140.611 187.378,142.85 186.954,147.41 183.591,144.3 
			179.121,145.307 181.04,141.146 178.701,137.208 183.253,137.747 		"/>
		<polygon fill="#FFEFA6" points="156.884,146.485 157.776,150.978 161.984,152.793 157.987,155.028 157.564,159.588 
			154.201,156.478 149.73,157.484 151.649,153.326 149.311,149.386 153.859,149.925 		"/>
		<polygon fill="#FFEFA6" points="89.184,106.378 90.077,110.872 94.283,112.686 90.286,114.923 89.86,119.484 86.498,116.374 
			82.029,117.381 83.949,113.22 81.61,109.281 86.161,109.82 		"/>
		<polygon fill="#FFEFA6" points="101.731,131.767 102.623,136.262 106.83,138.071 102.832,140.31 102.408,144.874 99.045,141.762 
			94.574,142.769 96.495,138.607 94.157,134.668 98.707,135.209 		"/>
		<polygon fill="#FFEFA6" points="128.899,145.495 129.791,149.988 133.999,151.799 129.999,154.038 129.576,158.598 
			126.212,155.488 121.742,156.495 123.662,152.333 121.324,148.394 125.874,148.935 		"/>
		<polygon fill="#FFEFA6" points="157.529,36.201 158.421,40.696 162.63,42.509 158.63,44.745 158.207,49.308 154.842,46.197 
			150.374,47.204 152.292,43.042 149.955,39.103 154.504,39.643 		"/>
		<polygon fill="#FFEFA6" points="191.075,51.642 191.965,56.136 196.174,57.947 192.176,60.184 191.752,64.747 188.39,61.636 
			183.919,62.644 185.838,58.483 183.499,54.541 188.051,55.083 		"/>
		<polygon fill="#FFEFA6" points="139.095,51.104 139.988,55.599 144.194,57.413 140.197,59.648 139.773,64.211 136.409,61.099 
			131.94,62.105 133.86,57.946 131.522,54.006 136.072,54.547 		"/>
		<polygon fill="#FFEFA6" points="163.844,67.269 164.737,71.763 168.944,73.575 164.945,75.813 164.521,80.375 161.159,77.263 
			156.688,78.271 158.61,74.109 156.27,70.171 160.821,70.712 		"/>
		<polygon fill="#FFEFA6" points="200.107,76.968 200.999,81.461 205.208,83.276 201.206,85.512 200.786,90.075 197.421,86.961 
			192.951,87.969 194.87,83.81 192.533,79.871 197.083,80.409 		"/>
		<polygon fill="#FFEFA6" points="174.283,89.002 175.175,93.498 179.385,95.31 175.384,97.545 174.96,102.109 171.599,98.998 
			167.129,100.004 169.049,95.843 166.709,91.905 171.261,92.444 		"/>
		<polygon fill="#FFEFA6" points="203.218,105.189 204.109,109.684 208.316,111.495 204.318,113.734 203.896,118.294 
			200.533,115.184 196.063,116.191 197.983,112.032 195.644,108.09 200.192,108.631 		"/>
		<polygon fill="#FFEFA6" points="115.198,34.891 116.092,39.386 120.297,41.198 116.299,43.435 115.876,47.997 112.514,44.886 
			108.043,45.893 109.964,41.732 107.626,37.792 112.174,38.333 		"/>
		<polygon fill="#FFEFA6" points="92.224,49.457 93.116,53.95 97.325,55.763 93.325,57.999 92.902,62.562 89.541,59.451 
			85.07,60.456 86.989,56.297 84.651,52.357 89.199,52.896 		"/>
		<polygon fill="#FFEFA6" points="111.79,65.478 112.682,69.97 116.889,71.784 112.893,74.021 112.47,78.582 109.107,75.471 
			104.637,76.479 106.555,72.318 104.216,68.379 108.769,68.918 		"/>
		<polygon fill="#FFEFA6" points="143.65,79.801 144.543,84.296 148.75,86.109 144.753,88.345 144.33,92.907 140.965,89.795 
			136.497,90.803 138.417,86.644 136.076,82.704 140.627,83.243 		"/>
		<polygon fill="#FFEFA6" points="84.069,79.65 84.961,84.144 89.17,85.957 85.171,88.192 84.747,92.752 81.385,89.642 
			76.917,90.65 78.833,86.491 76.495,82.55 81.045,83.091 		"/>
		<polygon fill="#FFEFA6" points="111.309,92.291 112.2,96.785 116.409,98.597 112.411,100.835 111.987,105.396 108.625,102.286 
			104.154,103.293 106.075,99.132 103.735,95.192 108.285,95.734 		"/>
		<polygon fill="#FFEFA6" points="181.641,179.73 182.2,182.557 184.846,183.697 182.334,185.105 182.068,187.973 179.95,186.016 
			177.139,186.649 178.348,184.036 176.876,181.556 179.739,181.897 		"/>
		<polygon fill="#FFEFA6" points="266.555,177.554 267.119,180.382 269.762,181.521 267.251,182.929 266.98,185.796 
			264.867,183.839 262.056,184.474 263.264,181.857 261.795,179.38 264.654,179.718 		"/>
		<polygon fill="#FFEFA6" points="202.651,201.625 203.212,204.451 205.857,205.59 203.343,206.998 203.078,209.866 
			200.961,207.913 198.152,208.546 199.359,205.927 197.888,203.449 200.748,203.79 		"/>
		<polygon fill="#FFEFA6" points="182.26,193.329 182.82,196.157 185.467,197.293 182.954,198.701 182.687,201.569 180.571,199.614 
			177.762,200.249 178.969,197.63 177.496,195.152 180.36,195.493 		"/>
		<polygon fill="#FFEFA6" points="229.064,192.591 229.625,195.414 232.271,196.558 229.757,197.962 229.491,200.834 
			227.377,198.877 224.565,199.508 225.772,196.893 224.303,194.417 227.161,194.753 		"/>
		<polygon fill="#FFEFA6" points="157.558,198.901 158.12,201.728 160.767,202.866 158.251,204.274 157.984,207.143 
			155.871,205.186 153.059,205.822 154.268,203.203 152.796,200.726 155.657,201.066 		"/>
		<polygon fill="#FFEFA6" points="134.89,202 135.45,204.823 138.098,205.965 135.582,207.372 135.315,210.24 133.201,208.285 
			130.391,208.917 131.597,206.3 130.126,203.823 132.988,204.161 		"/>
		<polygon fill="#FFEFA6" points="212.45,146.184 213.011,149.012 215.658,150.15 213.144,151.561 212.874,154.427 210.76,152.47 
			207.951,153.104 209.156,150.487 207.687,148.01 210.547,148.35 		"/>
		<polygon fill="#FFEFA6" points="298.843,83.257 299.403,86.082 302.049,87.223 299.535,88.629 299.269,91.498 297.154,89.543 
			294.343,90.174 295.55,87.559 294.079,85.082 296.941,85.421 		"/>
		<polygon fill="#FFEFA6" points="198.858,154.742 199.419,157.57 202.064,158.708 199.55,160.114 199.282,162.984 197.166,161.027 
			194.356,161.665 195.564,159.045 194.096,156.565 196.955,156.906 		"/>
		<polygon fill="#FFEFA6" points="214.715,161.24 215.274,164.07 217.918,165.207 215.406,166.615 215.139,169.483 213.024,167.526 
			210.215,168.163 211.42,165.545 209.95,163.066 212.812,163.406 		"/>
		<polygon fill="#FFEFA6" points="235.164,175.897 235.725,178.726 238.37,179.864 235.858,181.272 235.593,184.14 233.476,182.181 
			230.665,182.816 231.874,180.201 230.402,177.721 233.261,178.063 		"/>
		<polygon fill="#FFEFA6" points="121.219,191.852 121.779,194.682 124.426,195.819 121.913,197.229 121.644,200.094 
			119.53,198.137 116.72,198.772 117.926,196.157 116.457,193.68 119.317,194.021 		"/>
		<polygon fill="#FFEFA6" points="215.188,180.313 215.746,183.142 218.393,184.278 215.878,185.686 215.613,188.556 
			213.497,186.599 210.686,187.231 211.893,184.617 210.422,182.137 213.283,182.478 		"/>
		<polygon fill="#FFEFA6" points="102.437,186.889 102.998,189.713 105.644,190.854 103.128,192.259 102.862,195.129 
			100.749,193.172 97.937,193.805 99.146,191.19 97.675,188.712 100.536,189.051 		"/>
		<polygon fill="#FFEFA6" points="172.979,9.784 173.539,12.611 176.184,13.751 173.669,15.157 173.404,18.025 171.29,16.069 
			168.479,16.704 169.686,14.086 168.213,11.609 171.075,11.949 		"/>
		<polygon fill="#FFEFA6" points="180.379,19.248 180.94,22.075 183.585,23.215 181.071,24.622 180.807,27.49 178.688,25.533 
			175.879,26.167 177.089,23.551 175.615,21.074 178.476,21.413 		"/>
		<polygon fill="#FFEFA6" points="185.851,27.91 186.411,30.736 189.06,31.876 186.543,33.283 186.277,36.151 184.164,34.195 
			181.353,34.829 182.559,32.212 181.089,29.734 183.948,30.075 		"/>
		<polygon fill="#FFEFA6" points="201.709,34.409 202.267,37.234 204.916,38.374 202.398,39.781 202.134,42.65 200.018,40.694 
			197.208,41.327 198.416,38.712 196.942,36.233 199.805,36.574 		"/>
		<polygon fill="#FFEFA6" points="177.973,164.604 178.532,167.428 181.181,168.57 178.665,169.976 178.4,172.846 176.282,170.891 
			173.473,171.521 174.68,168.904 173.207,166.429 176.071,166.768 		"/>
		<polygon fill="#FFEFA6" points="193.828,171.104 194.389,173.928 197.034,175.066 194.522,176.474 194.252,179.344 
			192.138,177.389 189.329,178.022 190.534,175.405 189.068,172.927 191.925,173.266 		"/>
		<polygon fill="#FFEFA6" points="124.169,1.737 124.729,4.564 127.376,5.703 124.861,7.11 124.594,9.98 122.48,8.023 
			119.669,8.657 120.875,6.04 119.404,3.563 122.266,3.902 		"/>
		<polygon fill="#FFEFA6" points="142.461,10.657 143.022,13.482 145.669,14.623 143.154,16.029 142.889,18.898 140.772,16.941 
			137.962,17.575 139.169,14.959 137.699,12.481 140.558,12.82 		"/>
		<polygon fill="#FFEFA6" points="113.013,12.715 113.573,15.542 116.219,16.68 113.705,18.089 113.439,20.958 111.324,19 
			108.512,19.634 109.719,17.017 108.249,14.54 111.111,14.88 		"/>
		<polygon fill="#FFEFA6" points="128.869,19.213 129.431,22.041 132.075,23.179 129.562,24.587 129.295,27.456 127.181,25.499 
			124.368,26.131 125.576,23.516 124.106,21.038 126.967,21.379 		"/>
		<polygon fill="#FFEFA6" points="152.836,19.947 153.397,22.773 156.043,23.914 153.529,25.322 153.261,28.19 151.148,26.234 
			148.335,26.866 149.543,24.25 148.074,21.772 150.934,22.112 		"/>
		<polygon fill="#FFEFA6" points="160.334,179.756 160.894,182.578 163.54,183.72 161.027,185.124 160.76,187.996 158.646,186.039 
			155.834,186.67 157.041,184.055 155.571,181.579 158.433,181.916 		"/>
		<polygon fill="#FFEFA6" points="268.903,162.274 269.465,165.098 272.111,166.241 269.594,167.647 269.331,170.515 
			267.215,168.558 264.403,169.194 265.611,166.575 264.141,164.098 267,164.438 		"/>
		<polygon fill="#FFEFA6" points="96.533,155.807 97.094,158.635 99.74,159.774 97.228,161.182 96.961,164.052 94.845,162.095 
			92.033,162.729 93.24,160.11 91.771,157.633 94.631,157.971 		"/>
		<polygon fill="#FFEFA6" points="31.116,122.691 31.677,125.519 34.322,126.66 31.808,128.065 31.541,130.936 29.426,128.979 
			26.616,129.609 27.823,126.996 26.352,124.519 29.213,124.857 		"/>
		<polygon fill="#FFEFA6" points="45.329,127.733 45.892,130.557 48.536,131.698 46.022,133.106 45.754,135.976 43.64,134.017 
			40.828,134.651 42.038,132.034 40.566,129.557 43.427,129.897 		"/>
		<polygon fill="#FFEFA6" points="31.165,133.488 31.726,136.316 34.371,137.455 31.858,138.863 31.591,141.733 29.477,139.773 
			26.663,140.408 27.872,137.793 26.402,135.314 29.263,135.654 		"/>
		<polygon fill="#FFEFA6" points="133.099,182.335 133.658,185.16 136.305,186.302 133.79,187.706 133.523,190.578 131.409,188.621 
			128.597,189.253 129.804,186.636 128.334,184.161 131.195,184.5 		"/>
		<polygon fill="#FFEFA6" points="47.877,149.61 48.438,152.436 51.083,153.576 48.569,154.982 48.303,157.85 46.188,155.895 
			43.378,156.526 44.583,153.911 43.114,151.434 45.974,151.773 		"/>
		<polygon fill="#FFEFA6" points="83.214,150.094 83.774,152.918 86.421,154.059 83.908,155.466 83.642,158.335 81.525,156.38 
			78.714,157.01 79.923,154.397 78.45,151.918 81.312,152.258 		"/>
		<polygon fill="#FFEFA6" points="28.359,157.236 28.918,160.064 31.564,161.201 29.05,162.608 28.784,165.479 26.669,163.519 
			23.858,164.156 25.065,161.537 23.595,159.06 26.455,159.4 		"/>
		<polygon fill="#FFEFA6" points="69.619,158.65 70.181,161.479 72.827,162.617 70.313,164.027 70.046,166.893 67.933,164.935 
			65.121,165.568 66.329,162.955 64.857,160.476 67.717,160.816 		"/>
		<polygon fill="#FFEFA6" points="82.042,174.456 82.605,177.282 85.25,178.423 82.736,179.831 82.47,182.701 80.354,180.744 
			77.544,181.375 78.752,178.759 77.281,176.284 80.141,176.621 		"/>
		<polygon fill="#FFEFA6" points="18.48,132.799 19.042,135.623 21.689,136.763 19.174,138.171 18.907,141.04 16.791,139.082 
			13.98,139.715 15.188,137.1 13.718,134.623 16.578,134.961 		"/>
		<polygon fill="#FFEFA6" points="65.948,178.375 66.511,181.197 69.156,182.341 66.642,183.746 66.376,186.618 64.259,184.66 
			61.448,185.291 62.657,182.676 61.185,180.201 64.046,180.537 		"/>
		<polygon fill="#FFEFA6" points="84.747,198.451 85.308,201.279 87.953,202.415 85.44,203.823 85.172,206.691 83.059,204.736 
			80.247,205.369 81.454,202.754 79.984,200.274 82.844,200.615 		"/>
		<polygon fill="#FFEFA6" points="56.658,105.431 57.22,108.257 59.865,109.397 57.352,110.804 57.085,113.671 54.97,111.716 
			52.158,112.349 53.367,109.732 51.895,107.256 54.756,107.595 		"/>
		<polygon fill="#FFEFA6" points="72.514,111.929 73.077,114.755 75.721,115.896 73.208,117.302 72.941,120.172 70.825,118.214 
			68.015,118.848 69.223,116.232 67.75,113.755 70.613,114.095 		"/>
		<polygon fill="#FFEFA6" points="17.672,100.624 18.234,103.449 20.88,104.59 18.366,105.998 18.099,108.865 15.984,106.909 
			13.173,107.543 14.38,104.926 12.91,102.448 15.771,102.787 		"/>
		<polygon fill="#FFEFA6" points="58.92,120.487 59.483,123.313 62.126,124.454 59.613,125.862 59.349,128.73 57.233,126.772 
			54.422,127.405 55.629,124.79 54.159,122.313 57.02,122.651 		"/>
		<polygon fill="#FFEFA6" points="73.133,125.528 73.695,128.354 76.342,129.494 73.827,130.9 73.561,133.77 71.445,131.811 
			68.635,132.446 69.842,129.829 68.371,127.351 71.231,127.689 		"/>
		<polygon fill="#FFEFA6" points="62.421,134.858 62.983,137.685 65.628,138.825 63.113,140.233 62.849,143.101 60.732,141.144 
			57.92,141.776 59.128,139.159 57.658,136.684 60.521,137.022 		"/>
		<polygon fill="#FFEFA6" points="74.709,53.676 75.27,56.501 77.916,57.642 75.401,59.048 75.135,61.918 73.02,59.96 
			70.209,60.596 71.416,57.978 69.944,55.501 72.807,55.84 		"/>
		<polygon fill="#FFEFA6" points="92.393,10.867 92.953,13.693 95.6,14.834 93.084,16.241 92.817,19.109 90.704,17.153 
			87.892,17.786 89.1,15.17 87.628,12.692 90.491,13.032 		"/>
		<polygon fill="#FFEFA6" points="307.038,98.426 307.601,101.252 310.245,102.392 307.732,103.801 307.465,106.669 
			305.352,104.711 302.54,105.344 303.746,102.729 302.276,100.251 305.138,100.591 		"/>
		<polygon fill="#FFEFA6" points="76.578,26.862 77.139,29.688 79.786,30.828 77.27,32.235 77.003,35.104 74.888,33.147 
			72.08,33.78 73.285,31.165 71.814,28.685 74.675,29.026 		"/>
		<polygon fill="#FFEFA6" points="77.197,40.459 77.76,43.286 80.404,44.426 77.891,45.832 77.625,48.701 75.508,46.745 
			72.699,47.377 73.906,44.762 72.436,42.283 75.295,42.623 		"/>
		<polygon fill="#FFEFA6" points="213.279,42.758 213.84,45.584 216.486,46.724 213.972,48.13 213.705,51 211.592,49.043 
			208.779,49.676 209.987,47.059 208.515,44.583 211.379,44.922 		"/>
		<polygon fill="#FFEFA6" points="63.908,86.132 64.468,88.959 67.115,90.099 64.6,91.505 64.333,94.374 62.219,92.418 
			59.407,93.05 60.614,90.435 59.144,87.957 62.006,88.297 		"/>
		<polygon fill="#FFEFA6" points="68.443,69.779 69.004,72.605 71.65,73.745 69.135,75.152 68.87,78.02 66.753,76.064 
			63.945,76.697 65.151,74.082 63.679,71.604 66.542,71.942 		"/>
		<polygon fill="#FFEFA6" points="30.601,47.46 31.162,50.286 33.809,51.426 31.294,52.833 31.027,55.703 28.914,53.745 
			26.102,54.378 27.309,51.762 25.838,49.285 28.699,49.625 		"/>
		<polygon fill="#FFEFA6" points="51.605,77.938 52.166,80.765 54.814,81.904 52.297,83.312 52.031,86.181 49.917,84.224 
			47.105,84.857 48.312,82.24 46.842,79.763 49.704,80.103 		"/>
		<polygon fill="#FFEFA6" points="50.894,58.899 51.454,61.723 54.102,62.865 51.586,64.271 51.321,67.141 49.206,65.184 
			46.396,65.816 47.603,63.201 46.13,60.723 48.993,61.062 		"/>
		<polygon fill="#FFEFA6" points="68.77,99.73 69.333,102.556 71.977,103.697 69.463,105.104 69.198,107.972 67.083,106.016 
			64.272,106.651 65.48,104.031 64.009,101.555 66.87,101.894 		"/>
		<polygon fill="#FFEFA6" points="57.826,26.115 58.386,28.942 61.033,30.082 58.518,31.488 58.251,34.358 56.136,32.401 
			53.325,33.035 54.535,30.418 53.062,27.94 55.924,28.28 		"/>
		<polygon fill="#FFEFA6" points="59.404,43.127 59.965,45.954 62.611,47.094 60.098,48.501 59.831,51.37 57.716,49.413 
			54.905,50.046 56.111,47.43 54.64,44.952 57.504,45.292 		"/>
		<polygon fill="#FFEFA6" points="289.624,137.214 290.186,140.039 292.831,141.181 290.315,142.587 290.05,145.455 287.935,143.5 
			285.125,144.133 286.33,141.516 284.861,139.039 287.722,139.378 		"/>
		<polygon fill="#FFEFA6" points="222.059,28.831 222.618,31.657 225.266,32.797 222.75,34.204 222.484,37.073 220.369,35.116 
			217.558,35.75 218.77,33.134 217.294,30.656 220.156,30.995 		"/>
		<polygon fill="#FFEFA6" points="235.824,36.044 236.387,38.87 239.032,40.011 236.518,41.417 236.25,44.286 234.136,42.33 
			231.325,42.962 232.532,40.347 231.063,37.869 233.921,38.208 		"/>
		<polygon fill="#FFEFA6" points="224.321,43.888 224.883,46.713 227.529,47.854 225.015,49.261 224.747,52.129 222.633,50.173 
			219.822,50.806 221.029,48.19 219.561,45.712 222.42,46.052 		"/>
		<polygon fill="#FFEFA6" points="234.619,56.43 235.182,59.256 237.827,60.395 235.313,61.804 235.047,64.672 232.931,62.716 
			230.119,63.348 231.327,60.733 229.858,58.254 232.718,58.594 		"/>
		<polygon fill="#FFEFA6" points="221.029,64.987 221.589,67.813 224.235,68.954 221.721,70.36 221.453,73.23 219.337,71.274 
			216.525,71.906 217.735,69.29 216.265,66.812 219.126,67.151 		"/>
		<polygon fill="#FFEFA6" points="254.89,9.998 255.45,12.825 258.096,13.965 255.582,15.372 255.315,18.241 253.199,16.284 
			250.39,16.919 251.597,14.302 250.126,11.823 252.988,12.163 		"/>
		<polygon fill="#FFEFA6" points="152.343,170.878 152.903,173.702 155.55,174.843 153.035,176.25 152.77,179.119 150.653,177.166 
			147.844,177.798 149.051,175.179 147.579,172.702 150.441,173.042 		"/>
		<polygon fill="#FFEFA6" points="300.446,151.17 301.007,153.998 303.654,155.139 301.138,156.545 300.873,159.413 
			298.758,157.456 295.947,158.088 297.154,155.475 295.685,152.996 298.545,153.336 		"/>
		<polygon fill="#FFEFA6" points="276.412,133.188 276.975,136.014 279.62,137.152 277.105,138.56 276.839,141.43 274.725,139.473 
			271.915,140.105 273.122,137.488 271.652,135.013 274.512,135.351 		"/>
		<polygon fill="#FFEFA6" points="236.618,84.968 237.178,87.793 239.824,88.934 237.31,90.341 237.047,93.209 234.928,91.253 
			232.116,91.886 233.326,89.27 231.854,86.792 234.713,87.132 		"/>
		<polygon fill="#FFEFA6" points="318.103,83.715 318.663,86.541 321.31,87.682 318.795,89.088 318.529,91.957 316.413,90.001 
			313.602,90.633 314.81,88.018 313.338,85.541 316.2,85.878 		"/>
		<polygon fill="#FFEFA6" points="238.881,100.023 239.44,102.848 242.086,103.989 239.573,105.396 239.305,108.265 237.19,106.309 
			234.381,106.942 235.588,104.326 234.118,101.849 236.978,102.188 		"/>
		<polygon fill="#FFEFA6" points="295.181,108.165 295.74,110.991 298.387,112.13 295.874,113.538 295.606,116.406 293.491,114.451 
			290.682,115.082 291.886,112.466 290.416,109.989 293.277,110.327 		"/>
		<polygon fill="#FFEFA6" points="294.262,122.265 294.825,125.089 297.468,126.229 294.957,127.637 294.688,130.503 
			292.571,128.548 289.764,129.181 290.97,126.566 289.498,124.086 292.36,124.429 		"/>
		<polygon fill="#FFEFA6" points="248.805,76.336 249.366,79.163 252.013,80.303 249.498,81.711 249.232,84.58 247.116,82.622 
			244.305,83.256 245.513,80.639 244.041,78.162 246.903,78.501 		"/>
		<polygon fill="#FFEFA6" points="263.581,118.058 264.141,120.882 266.787,122.021 264.273,123.429 264.007,126.296 
			261.891,124.341 259.081,124.974 260.289,122.359 258.816,119.879 261.678,120.22 		"/>
		<polygon fill="#FFEFA6" points="226.611,110.033 227.17,112.859 229.816,114 227.302,115.407 227.035,118.275 224.921,116.318 
			222.111,116.951 223.318,114.336 221.848,111.858 224.71,112.199 		"/>
		<polygon fill="#FFEFA6" points="223.837,77.375 224.398,80.203 227.045,81.342 224.53,82.749 224.265,85.618 222.149,83.662 
			219.337,84.294 220.544,81.678 219.074,79.202 221.937,79.541 		"/>
		<polygon fill="#FFEFA6" points="225.114,91.813 225.677,94.637 228.321,95.778 225.807,97.184 225.538,100.055 223.425,98.098 
			220.613,98.731 221.821,96.114 220.351,93.637 223.212,93.976 		"/>
		<polygon fill="#FFEFA6" points="231.043,70.054 231.604,72.88 234.249,74.021 231.734,75.426 231.469,78.296 229.353,76.339 
			226.544,76.973 227.751,74.357 226.281,71.878 229.14,72.22 		"/>
		<polygon fill="#FFEFA6" points="222.604,6.866 223.164,9.691 225.811,10.831 223.296,12.237 223.029,15.107 220.914,13.15 
			218.105,13.783 219.313,11.167 217.842,8.69 220.701,9.03 		"/>
		<polygon fill="#FFEFA6" points="233.048,17.11 233.61,19.937 236.257,21.077 233.744,22.484 233.476,25.353 231.358,23.396 
			228.549,24.028 229.757,21.413 228.285,18.936 231.147,19.274 		"/>
		<polygon fill="#FFEFA6" points="205.499,17.065 206.058,19.891 208.705,21.031 206.189,22.438 205.923,25.307 203.809,23.351 
			200.997,23.982 202.202,21.367 200.731,18.89 203.596,19.229 		"/>
		<polygon fill="#FFEFA6" points="188,2.552 188.56,5.378 191.207,6.518 188.694,7.927 188.427,10.795 186.311,8.836 183.501,9.471 
			184.709,6.854 183.237,4.376 186.098,4.717 		"/>
		<polygon fill="#FFEFA6" points="145.948,-0.53 146.51,2.295 149.155,3.435 146.639,4.843 146.373,7.711 144.258,5.754 
			141.447,6.388 142.654,3.771 141.184,1.293 144.046,1.632 		"/>
		<polygon fill="#FFEFA6" points="238.915,31.308 239.476,34.135 242.122,35.275 239.607,36.681 239.342,39.551 237.226,37.594 
			234.417,38.228 235.624,35.611 234.153,33.134 237.013,33.474 		"/>
		<polygon fill="#FFEFA6" points="279.612,47.542 280.172,50.368 282.819,51.507 280.304,52.913 280.038,55.783 277.925,53.826 
			275.113,54.458 276.32,51.844 274.85,49.366 277.71,49.706 		"/>
		<polygon fill="#FFEFA6" points="302.645,55.204 303.203,58.03 305.853,59.171 303.337,60.577 303.07,63.445 300.954,61.49 
			298.145,62.123 299.352,59.507 297.881,57.028 300.743,57.37 		"/>
		<polygon fill="#FFEFA6" points="288.586,37.105 289.148,39.931 291.792,41.071 289.279,42.479 289.012,45.347 286.897,43.39 
			284.087,44.023 285.292,41.408 283.824,38.93 286.685,39.27 		"/>
		<polygon fill="#FFEFA6" points="262.169,24.582 262.729,27.406 265.375,28.547 262.859,29.953 262.595,32.823 260.479,30.865 
			257.667,31.5 258.875,28.884 257.403,26.406 260.264,26.745 		"/>
		<polygon fill="#FFEFA6" points="94.569,29.548 95.13,32.375 97.776,33.516 95.262,34.923 94.996,37.791 92.879,35.835 
			90.069,36.468 91.278,33.852 89.806,31.375 92.668,31.713 		"/>
		<polygon fill="#FFEFA6" points="107.854,30.237 108.414,33.063 111.06,34.204 108.546,35.61 108.282,38.479 106.165,36.522 
			103.355,37.156 104.561,34.54 103.09,32.061 105.952,32.401 		"/>
		<polygon fill="#FFEFA6" points="31.092,86.616 31.653,89.442 34.298,90.58 31.784,91.989 31.518,94.857 29.403,92.9 
			26.591,93.534 27.8,90.919 26.328,88.44 29.189,88.781 		"/>
		<polygon fill="#FFEFA6" points="82.731,136.289 83.293,139.115 85.938,140.256 83.425,141.664 83.159,144.532 81.042,142.574 
			78.232,143.208 79.439,140.592 77.969,138.115 80.83,138.453 		"/>
		<polygon fill="#FFEFA6" points="31.784,67.981 32.345,70.807 34.991,71.947 32.476,73.354 32.21,76.223 30.096,74.267 
			27.284,74.9 28.492,72.284 27.021,69.805 29.882,70.146 		"/>
		<polygon fill="#FFEFA6" points="12.353,77.192 12.915,80.02 15.562,81.16 13.046,82.567 12.78,85.434 10.664,83.478 7.854,84.111 
			9.062,81.495 7.588,79.018 10.453,79.358 		"/>
		<polygon fill="#FFEFA6" points="44.525,130.05 45.087,132.876 47.731,134.017 45.218,135.422 44.95,138.292 42.835,136.335 
			40.024,136.968 41.231,134.353 39.76,131.875 42.624,132.214 		"/>
		<polygon fill="#FFEFA6" points="259.328,47.843 259.888,50.671 262.536,51.812 260.019,53.218 259.754,56.087 257.64,54.131 
			254.828,54.765 256.036,52.148 254.565,49.669 257.425,50.011 		"/>
		<polygon fill="#FFEFA6" points="45.147,41.192 45.707,44.019 48.353,45.159 45.839,46.566 45.572,49.434 43.458,47.478 
			40.648,48.11 41.854,45.495 40.383,43.016 43.245,43.356 		"/>
		<polygon fill="#FFEFA6" points="43.811,100.84 44.372,103.667 47.018,104.807 44.504,106.212 44.236,109.082 42.122,107.125 
			39.312,107.759 40.519,105.143 39.049,102.665 41.911,103.004 		"/>
	</g>
	<g>
		<path fill="#FFFFFF" d="M67.353,155.143c6.797,0.923,12.199,3.591,16.054,7.93c9.172,10.323,7.952,25.024,6.03,33.903
			c12.449-8.225,39.167-23.915,60.543-22.893c1.734,0.082,3.485,0.245,5.205,0.476c16.852,2.287,29.347,11.173,36.086,17.183
			c0.291-3.806,1.42-8.427,4.654-12.272c3.504-4.167,8.754-6.621,15.603-7.298c2.309-0.227,4.761-0.169,7.286,0.173
			c12.54,1.705,25.448,10.142,34.257,17.11c-0.358-0.833-0.714-1.684-1.055-2.544c-4.539-11.405-4.675-18.499-0.411-21.686
			l0.169-0.115c3.797-2.421,9.751-3.102,17.699-2.022c4.46,0.604,8.9,1.667,12.504,2.678c-0.599-1.03-1.188-2.162-1.729-3.372
			c-3.463-7.808-3.076-15.223,1.126-21.439c6.096-9.026,22.775-12.545,34.972-13.914c-2.268-0.811-4.673-1.736-7.101-2.766
			c-14.392-6.12-21.984-12.817-22.572-19.907c-0.563-6.899,6.477-15.972,20.922-26.968c3.992-3.036,7.98-5.792,11.401-8.044
			c-7.075,0.581-16.229,0.872-24.656-0.272c-6.693-0.909-12.091-2.63-16.034-5.117c-5.192-3.269-9.944-10.535-3.1-26.581
			c1.042-2.442,2.218-4.785,3.384-6.907c-0.93,0.539-1.882,1.023-2.859,1.569c-13.317,7.447-17.784,7.96-20.194,7.633l0,0
			c-0.845-0.113-1.605-0.312-2.242-0.718c-3.026-1.939-3.453-5.149-2.939-8.235c-8.026,4.378-21.188,10.192-32.453,8.662
			c-0.884-0.12-1.757-0.278-2.589-0.483c-8.305-2.049-12.314-11.173-11.923-27.126c0.079-3.199,0.324-6.335,0.635-9.199
			c-1.504,2.047-3.173,4.232-4.938,6.415c-13.133,16.217-19.673,17.412-23.447,16.9c-0.09-0.012-0.186-0.026-0.281-0.043
			c-7.203-1.222-11.312-4.813-13.565-7.841c-4,4.66-11.776,11.656-21.684,10.685c-0.184-0.017-0.361-0.068-0.542-0.093
			c-0.001,0-0.001,0-0.001,0c-6.195-0.841-11.553-5.453-15.918-13.765c-0.596-1.132-1.132-2.239-1.605-3.314
			c-1.48,3.678-3.589,8.267-6.418,12.962c-8.629,14.317-19.886,22.656-32.554,24.111c-9.01,1.037-20.092,0.678-32.93-1.063
			c-10.273-1.395-19.82-3.414-26.837-5.097c9.061,7.934,21.998,20.705,23.874,30.391l0.064,0.324l-0.033,0.328
			c-0.47,4.515-3.602,10.274-15.854,12.079c-2.235,0.327-4.439,0.472-6.393,0.517c3.294,4.198,5.71,10.227,2.793,16.881
			c-2.213,5.052-9.119,10.232-20.53,15.398c-2.384,1.08-4.709,2.045-6.817,2.868c13.214,2.473,35.103,7.75,41.296,16.396
			c5.283,7.381,4.605,14.78,3.105,19.691C50.495,155.724,59.113,154.025,67.353,155.143z"/>
	</g>
</g>
<g>
	<g>
		<g>
			<path d="M77.438,136.998c-0.212,0.411-0.455,0.906-0.726,1.483c-0.271,0.579-0.562,1.195-0.868,1.851
				c-0.308,0.654-0.645,1.31-1.011,1.966c-0.367,0.654-0.744,1.251-1.134,1.79c-0.391,0.541-0.798,0.998-1.224,1.368
				c-0.425,0.374-0.863,0.598-1.312,0.674c-0.189,0-0.402-0.018-0.639-0.058c-0.237-0.038-0.473-0.103-0.709-0.192
				c-0.236-0.09-0.431-0.217-0.585-0.385c-0.154-0.167-0.23-0.393-0.23-0.675c0.022-2.622,0.201-5.005,0.532-7.15
				c0.33-2.143,0.85-4.031,1.559-5.663c0.708-1.631,1.618-2.987,2.729-4.065c1.111-1.08,2.458-1.851,4.042-2.313
				c0.047,0,0.136-0.006,0.266-0.019c0.13-0.014,0.218-0.021,0.267-0.021c0.709-0.025,1.224,0.328,1.542,1.059
				c0.319,0.731,0.555,1.889,0.709,3.468c0.154,1.581,0.26,3.609,0.319,6.086c0.059,2.479,0.183,5.454,0.372,8.921
				c0.071,0.284,0.111,0.526,0.125,0.733c0.012,0.205,0.018,0.449,0.018,0.731c0,0.387-0.106,0.677-0.319,0.869
				c-0.213,0.192-0.484,0.288-0.815,0.288c-0.686,0-1.17-0.205-1.453-0.614c-0.284-0.412-0.473-0.965-0.567-1.659
				c0-0.025-0.018-0.232-0.053-0.616c-0.035-0.384-0.083-0.827-0.142-1.329c-0.059-0.501-0.112-1.009-0.16-1.523
				c-0.048-0.514-0.083-0.938-0.107-1.272v-0.152c-0.047-0.257-0.077-0.578-0.088-0.965c-0.012-0.384-0.042-0.756-0.089-1.116
				c-0.048-0.437-0.083-0.873-0.106-1.312L77.438,136.998z M76.658,129.369c-0.638,0.512-1.265,1.208-1.879,2.081
				c-0.615,0.871-1.051,1.719-1.312,2.542c-0.119,0.385-0.249,0.914-0.389,1.582c-0.143,0.667-0.267,1.329-0.373,1.984
				c-0.107,0.654-0.196,1.258-0.266,1.809c-0.071,0.553-0.107,0.907-0.107,1.059c0.023,0,0.054-0.023,0.088-0.078
				c0.036-0.05,0.065-0.087,0.089-0.112c1.465-1.542,2.499-3.205,3.101-4.991C76.214,133.459,76.563,131.501,76.658,129.369z"/>
			<path d="M95.604,146.438c-0.332-0.513-0.609-1.228-0.833-2.139c-0.225-0.913-0.437-1.876-0.638-2.891
				c-0.201-1.013-0.384-2.003-0.55-2.967c-0.166-0.962-0.337-1.733-0.514-2.31c-0.177-0.579-0.372-0.907-0.584-0.984
				c-0.213-0.078-0.461,0.269-0.745,1.04l-3.084,10.327c-0.118,0.359-0.26,0.61-0.426,0.752c-0.166,0.14-0.438,0.211-0.815,0.211
				c-0.189,0-0.39-0.031-0.602-0.096c-0.212-0.065-0.414-0.161-0.602-0.291c-0.189-0.127-0.349-0.284-0.478-0.463
				c-0.13-0.18-0.208-0.384-0.231-0.614c0.071-0.309,0.136-0.873,0.196-1.698c0.059-0.82,0.101-1.771,0.125-2.851
				c0.023-1.078,0.041-2.214,0.053-3.409c0.012-1.193,0.012-2.311,0-3.353c-0.012-1.04-0.03-1.938-0.053-2.696
				c-0.024-0.756-0.047-1.251-0.071-1.483c0-0.257,0.006-0.52,0.017-0.789c0.012-0.27,0.047-0.521,0.107-0.752
				c0.059-0.231,0.165-0.417,0.318-0.558s0.396-0.211,0.727-0.211c0.448,0,0.869,0.205,1.259,0.616
				c0.39,0.412,0.585,0.848,0.585,1.31c0,0.668-0.03,1.329-0.089,1.985c-0.06,0.656-0.089,1.315-0.089,1.984
				c0,0.412,0,0.756,0,1.041s0.047,0.63,0.142,1.04c0.071-0.205,0.19-0.564,0.355-1.078c0.165-0.514,0.349-1.053,0.55-1.621
				c0.201-0.562,0.383-1.097,0.549-1.598c0.165-0.501,0.284-0.854,0.355-1.059c0.165-0.514,0.413-1.006,0.745-1.483
				s0.768-0.737,1.312-0.79c0.355-0.025,0.679,0.078,0.975,0.307c0.296,0.232,0.55,0.535,0.763,0.907
				c0.212,0.372,0.389,0.758,0.531,1.155c0.142,0.398,0.249,0.739,0.319,1.021l1.915,9.594l1.489,4.393
				c0.022,0.025,0.035,0.096,0.035,0.213c0,0.115,0,0.198,0,0.248c0,0.309-0.066,0.61-0.196,0.907
				c-0.13,0.294-0.36,0.442-0.69,0.442c-0.402,0-0.815-0.121-1.241-0.366C96.064,147.139,95.769,146.823,95.604,146.438z"/>
			<path d="M111.252,141.66c-0.024,0-0.183,0.284-0.478,0.848c-0.297,0.566-0.69,1.18-1.187,1.849
				c-0.497,0.668-1.081,1.284-1.755,1.849c-0.673,0.566-1.389,0.848-2.145,0.848c-1.04,0-1.909-0.346-2.605-1.04
				c-0.697-0.693-1.046-1.644-1.046-2.851c-0.047-0.616,0.031-1.349,0.231-2.198c0.202-0.848,0.496-1.727,0.887-2.64
				c0.389-0.911,0.862-1.796,1.418-2.657c0.555-0.861,1.152-1.606,1.791-2.235c0.638-0.629,1.306-1.097,2.003-1.406
				c0.696-0.309,1.399-0.359,2.108-0.155v-0.541c0-0.666-0.018-1.354-0.053-2.062c-0.035-0.706-0.07-1.514-0.107-2.427
				c-0.036-0.913-0.07-1.966-0.106-3.161c-0.035-1.193-0.053-2.626-0.053-4.297c0.07-0.282,0.195-0.468,0.372-0.558
				c0.177-0.09,0.372-0.136,0.585-0.136c0.543,0,0.975,0.194,1.294,0.579c0.318,0.386,0.513,0.863,0.584,1.427
				c-0.048,0.873-0.066,1.765-0.053,2.678c0.012,0.913,0.053,1.945,0.124,3.102c0.07,1.155,0.182,2.465,0.337,3.929
				c0.154,1.464,0.349,3.192,0.585,5.185c0.236,1.988,0.52,4.276,0.851,6.858c0.331,2.582,0.721,5.566,1.17,8.959v1.31
				c0,0.154-0.053,0.271-0.159,0.347c-0.106,0.077-0.236,0.136-0.389,0.174c-0.154,0.037-0.308,0.064-0.461,0.077
				c-0.154,0.013-0.267,0.021-0.337,0.021c-0.355,0-0.732-0.111-1.135-0.33c-0.402-0.217-0.639-0.519-0.709-0.905l-1.311-10.29
				c0-0.075-0.03-0.121-0.089-0.134C111.353,141.666,111.299,141.66,111.252,141.66z M105.013,142.508
				c0,0.077-0.006,0.211-0.019,0.405c-0.013,0.192-0.013,0.391,0,0.598c0.012,0.205,0.041,0.384,0.089,0.539
				c0.047,0.155,0.143,0.232,0.285,0.232c0.59,0.025,1.199-0.217,1.826-0.733c0.625-0.512,1.199-1.149,1.718-1.907
				c0.52-0.758,0.951-1.573,1.294-2.446c0.342-0.873,0.532-1.659,0.567-2.35c0.035-0.693-0.119-1.226-0.461-1.6
				c-0.341-0.372-0.927-0.455-1.754-0.25c-1.017,0.978-1.861,2.095-2.535,3.353C105.35,139.604,105.013,140.994,105.013,142.508z"/>
			<path d="M139.028,136.998c-0.213,0.411-0.455,0.906-0.726,1.483c-0.271,0.579-0.562,1.195-0.869,1.851
				c-0.308,0.654-0.645,1.31-1.011,1.966c-0.367,0.654-0.744,1.251-1.134,1.79c-0.391,0.541-0.798,0.998-1.224,1.368
				c-0.426,0.374-0.863,0.598-1.312,0.674c-0.189,0-0.402-0.018-0.639-0.058c-0.236-0.038-0.473-0.103-0.708-0.192
				c-0.237-0.09-0.432-0.217-0.586-0.385c-0.154-0.167-0.229-0.393-0.229-0.675c0.022-2.622,0.201-5.005,0.532-7.15
				c0.331-2.143,0.85-4.031,1.559-5.663c0.709-1.631,1.618-2.987,2.729-4.065c1.111-1.08,2.458-1.851,4.042-2.313
				c0.047,0,0.136-0.006,0.266-0.019c0.129-0.014,0.218-0.021,0.267-0.021c0.708-0.025,1.223,0.328,1.542,1.059
				c0.319,0.731,0.555,1.889,0.709,3.468c0.154,1.581,0.26,3.609,0.319,6.086c0.059,2.479,0.183,5.454,0.372,8.921
				c0.07,0.284,0.111,0.526,0.124,0.733c0.012,0.205,0.019,0.449,0.019,0.731c0,0.387-0.106,0.677-0.318,0.869
				c-0.213,0.192-0.485,0.288-0.815,0.288c-0.686,0-1.17-0.205-1.453-0.614c-0.284-0.412-0.473-0.965-0.567-1.659
				c0-0.025-0.018-0.232-0.053-0.616c-0.035-0.384-0.083-0.827-0.142-1.329c-0.059-0.501-0.112-1.009-0.16-1.523
				c-0.049-0.514-0.083-0.938-0.107-1.272v-0.152c-0.047-0.257-0.077-0.578-0.089-0.965c-0.012-0.384-0.042-0.756-0.089-1.116
				c-0.048-0.437-0.083-0.873-0.107-1.312L139.028,136.998z M138.249,129.369c-0.639,0.512-1.266,1.208-1.88,2.081
				c-0.614,0.871-1.051,1.719-1.312,2.542c-0.118,0.385-0.248,0.914-0.389,1.582c-0.143,0.667-0.267,1.329-0.373,1.984
				c-0.107,0.654-0.195,1.258-0.266,1.809c-0.07,0.553-0.107,0.907-0.107,1.059c0.024,0,0.054-0.023,0.089-0.078
				c0.036-0.05,0.065-0.087,0.089-0.112c1.465-1.542,2.5-3.205,3.102-4.991C137.805,133.459,138.152,131.501,138.249,129.369z"/>
			<path d="M159.766,141.774c0-1.978,0.031-3.943,0.089-5.895c0.059-1.953,0.089-3.931,0.089-5.934c0-1.158-0.053-2.313-0.159-3.468
				c-0.106-1.157-0.159-2.313-0.159-3.47c0-0.359,0.101-0.667,0.302-0.923c0.201-0.257,0.466-0.384,0.797-0.384
				c0.567,0,0.993,0.127,1.277,0.384c0.282,0.257,0.483,0.577,0.602,0.963c0.117,0.384,0.177,0.823,0.177,1.312
				c0,0.487,0,0.961,0,1.425c0,0.102,0.005,0.359,0.018,0.771c0.013,0.412,0.031,0.854,0.055,1.329
				c0.022,0.477,0.041,0.919,0.054,1.329c0.011,0.414,0.017,0.668,0.017,0.773v1.27c0,1.671-0.023,3.327-0.068,4.971
				c-0.049,1.644-0.071,3.313-0.071,5.009v1.619c0,0.128,0.019,0.301,0.053,0.521c0.035,0.217,0.066,0.328,0.089,0.328h0.284
				l8.401-3.625c0.188-0.179,0.355-0.276,0.496-0.288c0.143-0.012,0.307-0.021,0.496-0.021c0.117,0,0.272,0.009,0.462,0.021
				c0.188,0.012,0.371,0.052,0.55,0.115c0.177,0.064,0.33,0.154,0.461,0.27c0.127,0.115,0.194,0.29,0.194,0.52
				c0,0.591-0.297,1.105-0.888,1.542c-0.756,0.437-1.535,0.841-2.34,1.213c-0.804,0.372-1.619,0.675-2.445,0.905l-0.178,0.156
				c-1.135,0.334-2.193,0.821-3.173,1.464c-0.981,0.641-2.004,1.23-3.066,1.771h-0.318c-0.638,0-1.111-0.231-1.418-0.693
				c-0.309-0.463-0.509-1.006-0.602-1.638c-0.095-0.628-0.131-1.284-0.107-1.965C159.754,142.771,159.766,142.213,159.766,141.774z"
				/>
			<path d="M185.729,136.998c-0.213,0.411-0.452,0.906-0.725,1.483c-0.271,0.579-0.562,1.195-0.869,1.851
				c-0.309,0.654-0.645,1.31-1.011,1.966c-0.367,0.654-0.743,1.251-1.134,1.79c-0.392,0.541-0.798,0.998-1.225,1.368
				c-0.426,0.374-0.862,0.598-1.312,0.674c-0.189,0-0.402-0.018-0.639-0.058c-0.236-0.038-0.473-0.103-0.709-0.192
				c-0.235-0.09-0.433-0.217-0.584-0.385c-0.155-0.167-0.23-0.393-0.23-0.675c0.021-2.622,0.201-5.005,0.531-7.15
				c0.33-2.143,0.85-4.031,1.561-5.663c0.707-1.631,1.616-2.987,2.728-4.065c1.11-1.08,2.458-1.851,4.041-2.313
				c0.049,0,0.137-0.006,0.269-0.019c0.127-0.014,0.217-0.021,0.266-0.021c0.707-0.025,1.223,0.328,1.54,1.059
				c0.32,0.731,0.556,1.889,0.711,3.468c0.154,1.581,0.259,3.609,0.317,6.086c0.061,2.479,0.184,5.454,0.374,8.921
				c0.069,0.284,0.11,0.526,0.123,0.733c0.013,0.205,0.019,0.449,0.019,0.731c0,0.387-0.106,0.677-0.319,0.869
				c-0.213,0.192-0.484,0.288-0.814,0.288c-0.686,0-1.17-0.205-1.454-0.614c-0.283-0.412-0.472-0.965-0.566-1.659
				c0-0.025-0.019-0.232-0.054-0.616c-0.035-0.384-0.084-0.827-0.142-1.329c-0.059-0.501-0.113-1.009-0.159-1.523
				c-0.048-0.514-0.084-0.938-0.107-1.272v-0.152c-0.047-0.257-0.076-0.578-0.089-0.965c-0.013-0.384-0.042-0.756-0.088-1.116
				c-0.048-0.437-0.083-0.873-0.108-1.312L185.729,136.998z M184.951,129.369c-0.64,0.512-1.267,1.208-1.88,2.081
				c-0.615,0.871-1.052,1.719-1.312,2.542c-0.119,0.385-0.249,0.914-0.39,1.582c-0.142,0.667-0.267,1.329-0.371,1.984
				c-0.106,0.654-0.196,1.258-0.268,1.809c-0.071,0.553-0.106,0.907-0.106,1.059c0.022,0,0.055-0.023,0.089-0.078
				c0.034-0.05,0.065-0.087,0.089-0.112c1.464-1.542,2.5-3.205,3.102-4.991C184.509,133.459,184.854,131.501,184.951,129.369z"/>
			<path d="M200.812,144.087c-0.165,0.387-0.332,0.804-0.498,1.253c-0.164,0.449-0.354,0.854-0.565,1.213
				c-0.214,0.361-0.472,0.662-0.778,0.907c-0.309,0.244-0.698,0.365-1.171,0.365c-0.827,0-1.512-0.223-2.056-0.675
				c-0.545-0.449-0.987-1.013-1.329-1.694c-0.343-0.681-0.586-1.42-0.726-2.216c-0.144-0.796-0.213-1.539-0.213-2.235l0.282-9.325
				c-0.023-0.18,0.018-0.366,0.124-0.56c0.107-0.192,0.249-0.372,0.427-0.539s0.376-0.3,0.602-0.405
				c0.224-0.103,0.431-0.152,0.62-0.152c0.543,0,1.005,0.186,1.382,0.558c0.38,0.374,0.567,0.854,0.567,1.445v0.384
				c-0.261,0.464-0.484,1.066-0.672,1.811c-0.19,0.746-0.339,1.548-0.445,2.409s-0.172,1.74-0.194,2.638
				c-0.022,0.9,0.004,1.724,0.088,2.469c0.083,0.743,0.22,1.38,0.407,1.905c0.189,0.526,0.438,0.842,0.745,0.946
				c0.117,0,0.301-0.064,0.55-0.194s0.514-0.372,0.798-0.733c0.284-0.359,0.578-0.867,0.886-1.521
				c0.308-0.656,0.58-1.523,0.816-2.603c0.236-1.078,0.414-2.387,0.533-3.931c0.117-1.54,0.152-3.39,0.106-5.548
				c0.094-0.284,0.229-0.437,0.407-0.464c0.178-0.023,0.359-0.038,0.549-0.038c0.213,0,0.392,0.006,0.533,0.021
				c0.142,0.013,0.295,0.109,0.461,0.289c0.117,0.13,0.247,0.322,0.39,0.579c0.142,0.257,0.213,0.397,0.213,0.424l0.604,17.067
				c0,0.385-0.094,0.708-0.284,0.963c-0.19,0.257-0.462,0.387-0.814,0.387c-0.119,0-0.261-0.015-0.427-0.04
				c-0.164-0.025-0.332-0.078-0.496-0.155c-0.166-0.077-0.313-0.173-0.443-0.288c-0.13-0.115-0.207-0.25-0.229-0.406l-0.603-3.854
				L200.812,144.087z"/>
			<path d="M210.115,161.194c-0.095-0.282-0.088-0.602,0.019-0.961s0.324-0.593,0.656-0.693c0.543,0.257,1.111,0.424,1.702,0.501
				c0.589,0.078,1.186,0.09,1.79,0.038c0.602-0.052,1.199-0.154,1.79-0.308c0.589-0.154,1.157-0.334,1.7-0.541
				c0.543-0.486,0.923-1.124,1.136-1.907c0.211-0.783,0.296-1.849,0.247-3.198c-0.046-1.349-0.207-3.033-0.479-5.048
				s-0.618-4.487-1.044-7.417c0-0.077,0.004-0.194,0.017-0.347c0.013-0.154,0.007-0.301-0.017-0.443
				c-0.025-0.14-0.064-0.251-0.126-0.328c-0.058-0.077-0.136-0.077-0.229,0c-0.307,0.644-0.669,1.343-1.082,2.102
				c-0.413,0.756-0.886,1.464-1.418,2.118c-0.531,0.654-1.121,1.201-1.771,1.638c-0.649,0.437-1.379,0.654-2.181,0.654
				c-0.71,0-1.33-0.224-1.861-0.674c-0.53-0.449-0.798-1.097-0.798-1.945c0-0.641,0.123-1.452,0.372-2.427
				c0.248-0.978,0.584-2.012,1.011-3.102c0.424-1.092,0.921-2.179,1.489-3.256c0.565-1.08,1.157-2.055,1.771-2.928
				c0.614-0.871,1.241-1.585,1.88-2.139c0.637-0.552,1.252-0.827,1.842-0.827c0.238,0,0.552,0.046,0.941,0.136
				c0.388,0.09,0.768,0.224,1.133,0.403c0.366,0.182,0.686,0.384,0.957,0.616c0.271,0.232,0.41,0.501,0.41,0.811v3.121l2.301,18.187
				c0,1.028-0.016,2.009-0.052,2.947c-0.035,0.936-0.189,1.805-0.462,2.601c-0.271,0.796-0.703,1.502-1.293,2.118
				c-0.594,0.619-1.443,1.118-2.555,1.504c-0.14,0.077-0.436,0.14-0.885,0.192s-0.963,0.09-1.542,0.115
				c-0.581,0.025-1.194,0.025-1.844,0c-0.65-0.025-1.241-0.083-1.772-0.173c-0.532-0.09-0.965-0.224-1.295-0.403
				C210.244,161.75,210.092,161.503,210.115,161.194z M215.646,133.183c-0.235,0.282-0.549,0.731-0.939,1.347
				c-0.388,0.619-0.785,1.3-1.187,2.043c-0.4,0.744-0.798,1.523-1.188,2.331c-0.389,0.811-0.704,1.561-0.938,2.254
				c-0.235,0.693-0.386,1.284-0.443,1.771c-0.06,0.489,0.041,0.786,0.303,0.888c0.494-0.284,1.026-0.752,1.595-1.406
				c0.566-0.655,1.104-1.389,1.613-2.197c0.508-0.809,0.956-1.644,1.345-2.505c0.391-0.86,0.663-1.638,0.814-2.331
				c0.155-0.695,0.168-1.253,0.036-1.677C216.525,133.279,216.189,133.106,215.646,133.183z"/>
			<path d="M225.836,128.905c0.045-1.542-0.013-3.083-0.179-4.623c-0.166-1.542-0.247-3.071-0.247-4.587
				c0-0.486,0.128-0.789,0.39-0.904c0.26-0.115,0.556-0.173,0.886-0.173c0.475,0,0.863,0.142,1.17,0.422
				c0.307,0.284,0.485,0.681,0.532,1.195c0.213,2.801,0.337,5.569,0.372,8.306c0.035,2.736,0.207,5.503,0.514,8.303
				c0.709-1.464,1.441-2.671,2.198-3.622c0.756-0.95,1.482-1.581,2.181-1.888c0.694-0.309,1.335-0.25,1.913,0.173
				c0.578,0.422,1.047,1.26,1.401,2.504c0.355,1.247,0.566,2.941,0.637,5.086c0.071,2.146-0.046,4.811-0.354,7.996
				c-0.165,0-0.366,0.006-0.602,0.019c-0.236,0.015-0.468,0.008-0.691-0.019c-0.224-0.024-0.421-0.077-0.585-0.154
				c-0.165-0.079-0.26-0.217-0.281-0.424c0.188-1.926,0.294-3.545,0.317-4.854c0.021-1.312-0.011-2.39-0.104-3.235
				c-0.097-0.849-0.226-1.496-0.392-1.945c-0.167-0.451-0.345-0.779-0.532-0.984c-0.188-0.205-0.371-0.316-0.55-0.328
				c-0.177-0.012-0.313-0.006-0.407,0.021c-0.52,0.205-1.011,0.704-1.471,1.502c-0.461,0.796-0.856,1.721-1.187,2.774
				c-0.332,1.053-0.573,2.164-0.729,3.332c-0.153,1.172-0.194,2.216-0.123,3.142c-0.023,0.205-0.046,0.412-0.071,0.616
				c-0.022,0.205-0.065,0.399-0.123,0.579c-0.061,0.18-0.155,0.328-0.284,0.443s-0.323,0.173-0.585,0.173
				c-0.494,0-0.892-0.096-1.187-0.29c-0.296-0.192-0.52-0.443-0.675-0.75c-0.152-0.309-0.249-0.668-0.281-1.08
				c-0.036-0.409-0.032-0.833,0.017-1.272L225.836,128.905z"/>
			<path d="M243.962,133.607c0-0.282,0.007-0.533,0.02-0.752c0.013-0.217,0.064-0.468,0.158-0.752v-13.176
				c0-0.077,0.055-0.161,0.159-0.25c0.106-0.09,0.226-0.173,0.355-0.25c0.129-0.075,0.258-0.14,0.39-0.192
				c0.13-0.052,0.218-0.078,0.266-0.078c0.403,0,0.704,0.155,0.904,0.464c0.2,0.309,0.359,0.628,0.479,0.962
				c0,0.205-0.006,0.547-0.017,1.02c-0.015,0.477-0.021,0.978-0.021,1.504c0,0.526,0.007,1.034,0.021,1.523
				c0.011,0.487,0.017,0.823,0.017,1.002c0,0.127,0.007,0.403,0.017,0.827c0.013,0.424,0.031,0.886,0.054,1.387
				c0.023,0.501,0.043,0.969,0.053,1.406c0.013,0.437,0.02,0.708,0.02,0.811c0,0.127-0.007,0.397-0.02,0.808
				c-0.01,0.412-0.022,0.854-0.035,1.329c-0.011,0.477-0.029,0.944-0.052,1.408c-0.023,0.461-0.036,0.793-0.036,1
				c-0.049,0.464-0.165,0.873-0.355,1.235c-0.188,0.359-0.53,0.539-1.027,0.539c-0.521,0-0.873-0.155-1.063-0.464
				C244.057,134.608,243.962,134.171,243.962,133.607z M243.962,146.438c0-0.257,0.09-0.501,0.269-0.733
				c0.175-0.232,0.346-0.424,0.511-0.578h0.568c0.403,0,0.739,0.096,1.011,0.29c0.272,0.192,0.408,0.52,0.408,0.981
				c0,0.155-0.049,0.315-0.143,0.482c-0.094,0.167-0.22,0.322-0.374,0.462c-0.154,0.142-0.326,0.25-0.512,0.328
				c-0.189,0.077-0.368,0.102-0.532,0.077c-0.236-0.052-0.496-0.205-0.781-0.464C244.104,147.028,243.962,146.746,243.962,146.438z"
				/>
		</g>
	</g>
	<g>
		<g>
			<g>
				<path d="M40.996,66.483h12.729v37.908h20.657v10.852H40.996V66.483z"/>
				<path fill="#FFFFFF" d="M74.383,119.52H40.996c-2.362,0-4.278-1.915-4.278-4.278V66.483c0-2.363,1.916-4.278,4.278-4.278h12.729
					c2.362,0,4.278,1.916,4.278,4.278v33.629h16.379c2.362,0,4.278,1.916,4.278,4.278v10.852
					C78.661,117.605,76.745,119.52,74.383,119.52z M45.274,110.964h24.832v-2.295h-16.38c-2.363,0-4.278-1.916-4.278-4.278v-33.63
					h-4.173V110.964z"/>
			</g>
			<g>
				<path d="M171.198,66.483h11.824v48.759h-11.126l-22.12-29.144v29.144h-11.896V66.483h11.2l22.188,29.352L171.198,66.483z"/>
				<path fill="#FFFFFF" d="M183.022,119.52h-11.126c-1.34,0-2.602-0.626-3.409-1.692L154.054,98.81v16.432
					c0,2.363-1.916,4.278-4.277,4.278h-11.896c-2.362,0-4.278-1.915-4.278-4.278V66.483c0-2.363,1.916-4.278,4.278-4.278h11.2
					c1.341,0,2.604,0.629,3.413,1.698l14.466,19.139l-0.038-16.549c-0.002-1.137,0.447-2.227,1.25-3.031
					c0.801-0.804,1.892-1.257,3.028-1.257h11.822c2.363,0,4.278,1.916,4.278,4.278v48.759
					C187.301,117.605,185.386,119.52,183.022,119.52z M174.018,110.964h4.726V70.761h-3.256l0.058,25.064
					c0.004,1.84-1.17,3.477-2.914,4.063c-1.739,0.587-3.668-0.006-4.776-1.475l-20.903-27.653h-4.792v40.204h3.339V86.098
					c0-1.836,1.173-3.468,2.914-4.055c1.74-0.585,3.661,0.004,4.772,1.468L174.018,110.964z"/>
			</g>
			<g>
				<path d="M222.182,78.273c-2.181-1.183-4.336-1.774-6.469-1.774c-2.459,0-4.693,0.615-6.712,1.843
					c-2.018,1.229-3.604,2.921-4.765,5.078c-1.158,2.157-1.739,4.556-1.739,7.199c0,2.644,0.581,5.044,1.739,7.198
					c1.16,2.158,2.747,3.851,4.765,5.078c2.019,1.229,4.255,1.844,6.712,1.844c1.992,0,4.079-0.51,6.26-1.53
					c2.179-1.02,4.128-2.41,5.845-4.173l7.443,7.999c-2.646,2.784-5.787,4.998-9.427,6.644c-3.642,1.646-7.247,2.469-10.816,2.469
					c-4.823,0-9.18-1.113-13.076-3.338c-3.896-2.227-6.956-5.262-9.18-9.112c-2.228-3.849-3.341-8.161-3.341-12.938
					c0-4.73,1.137-8.996,3.409-12.799c2.271-3.802,5.392-6.792,9.355-8.973c3.965-2.179,8.403-3.269,13.319-3.269
					c3.617,0,7.189,0.754,10.713,2.261c3.524,1.507,6.515,3.56,8.972,6.155l-7.372,8.903
					C226.238,81.044,224.36,79.454,222.182,78.273z"/>
				<path fill="#FFFFFF" d="M215.018,120.425c-5.553,0-10.666-1.314-15.198-3.902c-4.543-2.596-8.163-6.191-10.762-10.686
					c-2.596-4.49-3.912-9.563-3.912-15.079c0-5.493,1.349-10.538,4.013-14.994c2.654-4.442,6.346-7.985,10.966-10.526
					c4.587-2.521,9.761-3.799,15.381-3.799c4.181,0,8.351,0.876,12.393,2.605c4.05,1.732,7.549,4.137,10.399,7.148
					c1.485,1.57,1.567,4.003,0.188,5.67l-7.374,8.903c-0.822,0.995-2.029,1.612-3.342,1.549c-1.29-0.014-2.506-0.611-3.307-1.623
					c-1.226-1.551-2.64-2.747-4.319-3.658c-1.559-0.845-3.008-1.255-4.428-1.255c-1.674,0-3.14,0.398-4.489,1.22
					c-1.366,0.833-2.422,1.961-3.221,3.449c-0.828,1.538-1.23,3.23-1.23,5.173c0,1.943,0.402,3.635,1.23,5.173
					c0.799,1.488,1.854,2.617,3.221,3.45c1.348,0.822,2.813,1.22,4.489,1.22c1.351,0,2.849-0.379,4.446-1.127
					c1.698-0.795,3.244-1.9,4.59-3.282c0.816-0.84,1.946-1.349,3.114-1.293c1.169,0.013,2.285,0.506,3.083,1.363l7.442,7.999
					c1.539,1.654,1.524,4.222-0.031,5.862c-3.015,3.172-6.636,5.727-10.763,7.595C223.412,119.466,219.181,120.425,215.018,120.425z
					 M215.505,69.996c-4.221,0-7.905,0.896-11.258,2.74c-3.318,1.825-5.853,4.252-7.745,7.417
					c-1.884,3.155-2.801,6.623-2.801,10.605c0,4.048,0.904,7.579,2.764,10.795c1.857,3.211,4.345,5.677,7.602,7.539
					c3.267,1.87,6.849,2.776,10.951,2.776c2.94,0,5.986-0.704,9.055-2.09c1.841-0.832,3.543-1.842,5.091-3.016l-1.693-1.822
					c-1.162,0.822-2.393,1.539-3.683,2.142c-6.142,2.872-12.158,2.423-17.012-0.535c-2.666-1.623-4.788-3.879-6.307-6.706
					c-1.491-2.774-2.249-5.879-2.249-9.224s0.758-6.449,2.249-9.225c1.519-2.823,3.641-5.08,6.307-6.704
					c2.692-1.638,5.698-2.468,8.938-2.468c2.844,0,5.707,0.771,8.51,2.292c1.162,0.631,2.263,1.361,3.29,2.184l1.746-2.108
					c-1.423-1.043-3.001-1.939-4.725-2.675C221.56,70.641,218.522,69.996,215.505,69.996z"/>
			</g>
			<g>
				<path d="M240.683,66.483h12.729v19.894h19.685V66.483h12.728v48.759h-12.728V96.531h-19.685v18.711h-12.729V66.483
					L240.683,66.483z"/>
				<path fill="#FFFFFF" d="M285.826,119.52h-12.729c-2.361,0-4.276-1.915-4.276-4.278v-14.434h-11.13v14.434
					c0,2.363-1.916,4.278-4.278,4.278h-12.728c-2.362,0-4.278-1.915-4.278-4.278V66.483c0-2.363,1.916-4.278,4.278-4.278h12.728
					c2.362,0,4.278,1.916,4.278,4.278v15.615h11.13V66.483c0-2.363,1.915-4.278,4.276-4.278h12.729c2.362,0,4.278,1.916,4.278,4.278
					v48.759C290.104,117.605,288.188,119.52,285.826,119.52z M277.375,110.964h4.174V70.761h-4.174v15.616
					c0,2.362-1.916,4.277-4.278,4.277h-19.685c-2.362,0-4.278-1.916-4.278-4.277V70.761h-4.171v40.204h4.171V96.531
					c0-2.363,1.916-4.277,4.278-4.277h19.685c2.362,0,4.278,1.915,4.278,4.277V110.964z"/>
			</g>
		</g>
	</g>
	<g>
		<g>
			<path d="M40.996,66.483h12.729v37.908h20.657v10.852H40.996V66.483z"/>
			<path d="M171.198,66.483h11.824v48.759h-11.126l-22.12-29.144v29.144h-11.896V66.483h11.2l22.188,29.352L171.198,66.483z"/>
			<path d="M222.182,78.273c-2.181-1.183-4.336-1.774-6.469-1.774c-2.459,0-4.693,0.615-6.712,1.843
				c-2.018,1.229-3.604,2.921-4.765,5.078c-1.158,2.157-1.739,4.556-1.739,7.199c0,2.644,0.581,5.044,1.739,7.198
				c1.16,2.158,2.747,3.851,4.765,5.078c2.019,1.229,4.255,1.844,6.712,1.844c1.992,0,4.079-0.51,6.26-1.53
				c2.179-1.02,4.128-2.41,5.845-4.173l7.443,7.999c-2.646,2.784-5.787,4.998-9.427,6.644c-3.642,1.646-7.247,2.469-10.816,2.469
				c-4.823,0-9.18-1.113-13.076-3.338c-3.896-2.227-6.956-5.262-9.18-9.112c-2.228-3.849-3.341-8.161-3.341-12.938
				c0-4.73,1.137-8.996,3.409-12.799c2.271-3.802,5.392-6.792,9.355-8.973c3.965-2.179,8.403-3.269,13.319-3.269
				c3.617,0,7.189,0.754,10.713,2.261c3.524,1.507,6.515,3.56,8.972,6.155l-7.372,8.903
				C226.238,81.044,224.36,79.454,222.182,78.273z"/>
			<path d="M240.683,66.483h12.729v19.894h19.685V66.483h12.728v48.759h-12.728V96.531h-19.685v18.711h-12.729V66.483
				L240.683,66.483z"/>
		</g>
	</g>
	<g>
		<g>
			<path fill="#1D1C1A" d="M59.291,50.059c-2.744,1.234-4.709,2.151-1.394,5.594c28.883,27.104,63.549,10.079,75.17,3.012
				c2.643-2.13,0.482-2.429-0.784-2.684c-1.656-0.335-2.876-0.164-4.106,0.291c-3.252,1.204-3.521-0.978-1.656-2.809
				c0.522-0.513,3.338-1.702,5.693-1.385c3.718,0.499,6.021,2.651,7.97,4.475c3.184,2.981,3.043,5.899,2.256,6.349
				c-1.25,0.712-1.612-0.805-3.562-2.972c-1.949-2.167-3.825,0.894-4.268,1.859c-0.022,0.053-0.046,0.104-0.071,0.156
				c-0.023,0.059-0.039,0.094-0.039,0.094l-0.002-0.002c-8.161,94.125-76.128,47.292-78.458-4.199
				c-0.448-1.195-3.305-4.629-3.998-2.055c-0.693,2.574,0.021,3.68-2.024,3.68c-1.427,0-2.224-4.298,0.763-7.959
				c1.002-1.228,4.405-4.212,6.989-4.445C63.42,46.55,62.034,48.825,59.291,50.059z"/>
			<path fill="#FFFFFF" d="M102.013,120.417c-22.568,0-45.986-27.474-49.778-57.005c-0.737,0.245-1.503,0.331-2.216,0.331
				c-2.043,0-3.833-1.201-4.787-3.211c-1.299-2.738-1.154-7.575,2.236-11.73c1.166-1.429,5.492-5.601,9.918-6
				c0.667-0.061,1.29-0.09,1.851-0.09c5.156,0,6.342,2.931,6.613,4.191c0.55,2.563-0.911,4.993-3.935,6.631
				c9.409,8.399,20.323,12.655,32.458,12.655c10.891,0,20.885-3.352,28.283-6.799c-0.501-0.484-0.904-1.071-1.18-1.745
				c-0.939-2.298-0.155-5.069,2.049-7.231c1.518-1.493,4.974-2.663,7.866-2.663c0.475,0,0.943,0.031,1.391,0.091
				c5.082,0.683,8.238,3.637,10.325,5.593c2.873,2.69,4.381,6.064,4.035,9.025c-0.214,1.827-1.154,3.342-2.581,4.158
				c-0.865,0.493-1.77,0.742-2.695,0.742c0,0,0,0-0.001,0c-1.494,0-2.608-0.606-3.454-1.345
				C133.392,113.243,113.57,120.417,102.013,120.417z M60.898,63.723c3.899,26.509,24.688,48.139,41.114,48.137
				c14.575,0,24.643-16.885,27.864-46.499c-8.434,4.375-21.209,9.38-35.503,9.38C82.044,74.743,70.815,71.041,60.898,63.723z"/>
		</g>
		<path fill="#1D1C1A" d="M59.291,50.059c-2.744,1.234-4.709,2.151-1.394,5.594c28.883,27.104,63.549,10.079,75.17,3.012
			c2.643-2.13,0.482-2.429-0.784-2.684c-1.656-0.335-2.876-0.164-4.106,0.291c-3.252,1.204-3.521-0.978-1.656-2.809
			c0.522-0.513,3.338-1.702,5.693-1.385c3.718,0.499,6.021,2.651,7.97,4.475c3.184,2.981,3.043,5.899,2.256,6.349
			c-1.25,0.712-1.612-0.805-3.562-2.972c-1.949-2.167-3.825,0.894-4.268,1.859c-0.022,0.053-0.046,0.104-0.071,0.156
			c-0.023,0.059-0.039,0.094-0.039,0.094l-0.002-0.002c-8.161,94.125-76.128,47.292-78.458-4.199
			c-0.448-1.195-3.305-4.629-3.998-2.055c-0.693,2.574,0.021,3.68-2.024,3.68c-1.427,0-2.224-4.298,0.763-7.959
			c1.002-1.228,4.405-4.212,6.989-4.445C63.42,46.55,62.034,48.825,59.291,50.059z"/>
		<path fill="#6D162E" d="M131.491,64.261c0,0-6.542,53.225-29.218,49.504c-32.733-5.366-42.766-52.356-42.766-52.356
			s16.226,18.167,33.725,16.613C110.733,76.469,131.491,64.261,131.491,64.261z"/>
		<g>
			<g>
				<path fill="#080B0A" d="M93.828,84.599C76.271,83.76,59.546,71.877,59.009,63.814c22.805,20.539,54.325,11.165,71.27,1.754
					C128.81,73.532,111.273,85.432,93.828,84.599z"/>
			</g>
		</g>
		<g>
			<path fill="#FFFFFF" d="M94.316,82.378c-17.556-0.839-34.28-12.721-34.817-20.783c22.803,20.54,54.322,11.166,71.269,1.754
				C129.3,71.311,111.762,83.211,94.316,82.378z"/>
		</g>
		<g>
			<g>
				<path fill="#D6C3C6" d="M92.934,74.805c-15.008-0.718-30.012-6.622-30.603-10.755c19.813,10.878,46.829,9.967,65.291,0.903
					C126.498,69.001,107.845,75.518,92.934,74.805z"/>
			</g>
		</g>
		<path fill="#F27265" d="M106.742,109.903c3.604-1.845,4.492-3.857,7.325-10.84c2.833-6.985-0.098-11.277-4.337-9.334
			c-5.45,2.498-8.22,1.973-9.584,2.267c-1.365,0.294-10.044-2.85-12.959,0.222c-2.914,3.074-0.7,5.147,2.685,9.287
			C94.192,106.787,101.146,112.767,106.742,109.903z"/>
		<path fill="#D35554" d="M109.969,98.306c-6.327-0.617-12.916-6.84-16.381-5.459c-2.64,1.052-7.559,5.041-7.875,1.757
			c-0.624-6.481,6.272-6.034,15.669-4.056c6.12,1.287,13.336-7.218,14.258,2.445C115.855,95.258,114.863,98.781,109.969,98.306z"/>
	</g>
</g>
</svg>
